%TF.GenerationSoftware,KiCad,Pcbnew,10.0.3*%
%TF.CreationDate,2026-07-01T12:00:50-06:00*%
%TF.ProjectId,ACT_Labs_REX,4143545f-4c61-4627-935f-5245582e6b69,2.2*%
%TF.SameCoordinates,Original*%
%TF.FileFunction,Legend,Bot*%
%TF.FilePolarity,Positive*%
%FSLAX46Y46*%
G04 Gerber Fmt 4.6, Leading zero omitted, Abs format (unit mm)*
G04 Created by KiCad (PCBNEW 10.0.3) date 2026-07-01 12:00:50*
%MOMM*%
%LPD*%
G01*
G04 APERTURE LIST*
%ADD10C,0.150000*%
%ADD11C,0.120000*%
G04 APERTURE END LIST*
D10*
X177726133Y-147783019D02*
X177726133Y-148497304D01*
X177726133Y-148497304D02*
X177773752Y-148640161D01*
X177773752Y-148640161D02*
X177868990Y-148735400D01*
X177868990Y-148735400D02*
X178011847Y-148783019D01*
X178011847Y-148783019D02*
X178107085Y-148783019D01*
X177249942Y-148783019D02*
X177249942Y-147783019D01*
X177249942Y-147783019D02*
X176868990Y-147783019D01*
X176868990Y-147783019D02*
X176773752Y-147830638D01*
X176773752Y-147830638D02*
X176726133Y-147878257D01*
X176726133Y-147878257D02*
X176678514Y-147973495D01*
X176678514Y-147973495D02*
X176678514Y-148116352D01*
X176678514Y-148116352D02*
X176726133Y-148211590D01*
X176726133Y-148211590D02*
X176773752Y-148259209D01*
X176773752Y-148259209D02*
X176868990Y-148306828D01*
X176868990Y-148306828D02*
X177249942Y-148306828D01*
X176345180Y-147783019D02*
X175726133Y-147783019D01*
X175726133Y-147783019D02*
X176059466Y-148163971D01*
X176059466Y-148163971D02*
X175916609Y-148163971D01*
X175916609Y-148163971D02*
X175821371Y-148211590D01*
X175821371Y-148211590D02*
X175773752Y-148259209D01*
X175773752Y-148259209D02*
X175726133Y-148354447D01*
X175726133Y-148354447D02*
X175726133Y-148592542D01*
X175726133Y-148592542D02*
X175773752Y-148687780D01*
X175773752Y-148687780D02*
X175821371Y-148735400D01*
X175821371Y-148735400D02*
X175916609Y-148783019D01*
X175916609Y-148783019D02*
X176202323Y-148783019D01*
X176202323Y-148783019D02*
X176297561Y-148735400D01*
X176297561Y-148735400D02*
X176345180Y-148687780D01*
X200363019Y-35043266D02*
X201077304Y-35043266D01*
X201077304Y-35043266D02*
X201220161Y-34995647D01*
X201220161Y-34995647D02*
X201315400Y-34900409D01*
X201315400Y-34900409D02*
X201363019Y-34757552D01*
X201363019Y-34757552D02*
X201363019Y-34662314D01*
X200458257Y-35471838D02*
X200410638Y-35519457D01*
X200410638Y-35519457D02*
X200363019Y-35614695D01*
X200363019Y-35614695D02*
X200363019Y-35852790D01*
X200363019Y-35852790D02*
X200410638Y-35948028D01*
X200410638Y-35948028D02*
X200458257Y-35995647D01*
X200458257Y-35995647D02*
X200553495Y-36043266D01*
X200553495Y-36043266D02*
X200648733Y-36043266D01*
X200648733Y-36043266D02*
X200791590Y-35995647D01*
X200791590Y-35995647D02*
X201363019Y-35424219D01*
X201363019Y-35424219D02*
X201363019Y-36043266D01*
X169189000Y-133355761D02*
X169236619Y-133498618D01*
X169236619Y-133498618D02*
X169236619Y-133736713D01*
X169236619Y-133736713D02*
X169189000Y-133831951D01*
X169189000Y-133831951D02*
X169141380Y-133879570D01*
X169141380Y-133879570D02*
X169046142Y-133927189D01*
X169046142Y-133927189D02*
X168950904Y-133927189D01*
X168950904Y-133927189D02*
X168855666Y-133879570D01*
X168855666Y-133879570D02*
X168808047Y-133831951D01*
X168808047Y-133831951D02*
X168760428Y-133736713D01*
X168760428Y-133736713D02*
X168712809Y-133546237D01*
X168712809Y-133546237D02*
X168665190Y-133450999D01*
X168665190Y-133450999D02*
X168617571Y-133403380D01*
X168617571Y-133403380D02*
X168522333Y-133355761D01*
X168522333Y-133355761D02*
X168427095Y-133355761D01*
X168427095Y-133355761D02*
X168331857Y-133403380D01*
X168331857Y-133403380D02*
X168284238Y-133450999D01*
X168284238Y-133450999D02*
X168236619Y-133546237D01*
X168236619Y-133546237D02*
X168236619Y-133784332D01*
X168236619Y-133784332D02*
X168284238Y-133927189D01*
X169189000Y-134736713D02*
X169236619Y-134641475D01*
X169236619Y-134641475D02*
X169236619Y-134450999D01*
X169236619Y-134450999D02*
X169189000Y-134355761D01*
X169189000Y-134355761D02*
X169093761Y-134308142D01*
X169093761Y-134308142D02*
X168712809Y-134308142D01*
X168712809Y-134308142D02*
X168617571Y-134355761D01*
X168617571Y-134355761D02*
X168569952Y-134450999D01*
X168569952Y-134450999D02*
X168569952Y-134641475D01*
X168569952Y-134641475D02*
X168617571Y-134736713D01*
X168617571Y-134736713D02*
X168712809Y-134784332D01*
X168712809Y-134784332D02*
X168808047Y-134784332D01*
X168808047Y-134784332D02*
X168903285Y-134308142D01*
X169236619Y-135355761D02*
X169189000Y-135260523D01*
X169189000Y-135260523D02*
X169093761Y-135212904D01*
X169093761Y-135212904D02*
X168236619Y-135212904D01*
X169189000Y-136117666D02*
X169236619Y-136022428D01*
X169236619Y-136022428D02*
X169236619Y-135831952D01*
X169236619Y-135831952D02*
X169189000Y-135736714D01*
X169189000Y-135736714D02*
X169093761Y-135689095D01*
X169093761Y-135689095D02*
X168712809Y-135689095D01*
X168712809Y-135689095D02*
X168617571Y-135736714D01*
X168617571Y-135736714D02*
X168569952Y-135831952D01*
X168569952Y-135831952D02*
X168569952Y-136022428D01*
X168569952Y-136022428D02*
X168617571Y-136117666D01*
X168617571Y-136117666D02*
X168712809Y-136165285D01*
X168712809Y-136165285D02*
X168808047Y-136165285D01*
X168808047Y-136165285D02*
X168903285Y-135689095D01*
X169189000Y-137022428D02*
X169236619Y-136927190D01*
X169236619Y-136927190D02*
X169236619Y-136736714D01*
X169236619Y-136736714D02*
X169189000Y-136641476D01*
X169189000Y-136641476D02*
X169141380Y-136593857D01*
X169141380Y-136593857D02*
X169046142Y-136546238D01*
X169046142Y-136546238D02*
X168760428Y-136546238D01*
X168760428Y-136546238D02*
X168665190Y-136593857D01*
X168665190Y-136593857D02*
X168617571Y-136641476D01*
X168617571Y-136641476D02*
X168569952Y-136736714D01*
X168569952Y-136736714D02*
X168569952Y-136927190D01*
X168569952Y-136927190D02*
X168617571Y-137022428D01*
X168569952Y-137308143D02*
X168569952Y-137689095D01*
X168236619Y-137451000D02*
X169093761Y-137451000D01*
X169093761Y-137451000D02*
X169189000Y-137498619D01*
X169189000Y-137498619D02*
X169236619Y-137593857D01*
X169236619Y-137593857D02*
X169236619Y-137689095D01*
X169236619Y-138546238D02*
X169236619Y-137974810D01*
X169236619Y-138260524D02*
X168236619Y-138260524D01*
X168236619Y-138260524D02*
X168379476Y-138165286D01*
X168379476Y-138165286D02*
X168474714Y-138070048D01*
X168474714Y-138070048D02*
X168522333Y-137974810D01*
X107159819Y-48858666D02*
X107874104Y-48858666D01*
X107874104Y-48858666D02*
X108016961Y-48811047D01*
X108016961Y-48811047D02*
X108112200Y-48715809D01*
X108112200Y-48715809D02*
X108159819Y-48572952D01*
X108159819Y-48572952D02*
X108159819Y-48477714D01*
X107159819Y-49763428D02*
X107159819Y-49572952D01*
X107159819Y-49572952D02*
X107207438Y-49477714D01*
X107207438Y-49477714D02*
X107255057Y-49430095D01*
X107255057Y-49430095D02*
X107397914Y-49334857D01*
X107397914Y-49334857D02*
X107588390Y-49287238D01*
X107588390Y-49287238D02*
X107969342Y-49287238D01*
X107969342Y-49287238D02*
X108064580Y-49334857D01*
X108064580Y-49334857D02*
X108112200Y-49382476D01*
X108112200Y-49382476D02*
X108159819Y-49477714D01*
X108159819Y-49477714D02*
X108159819Y-49668190D01*
X108159819Y-49668190D02*
X108112200Y-49763428D01*
X108112200Y-49763428D02*
X108064580Y-49811047D01*
X108064580Y-49811047D02*
X107969342Y-49858666D01*
X107969342Y-49858666D02*
X107731247Y-49858666D01*
X107731247Y-49858666D02*
X107636009Y-49811047D01*
X107636009Y-49811047D02*
X107588390Y-49763428D01*
X107588390Y-49763428D02*
X107540771Y-49668190D01*
X107540771Y-49668190D02*
X107540771Y-49477714D01*
X107540771Y-49477714D02*
X107588390Y-49382476D01*
X107588390Y-49382476D02*
X107636009Y-49334857D01*
X107636009Y-49334857D02*
X107731247Y-49287238D01*
X192726133Y-144233019D02*
X192726133Y-144947304D01*
X192726133Y-144947304D02*
X192773752Y-145090161D01*
X192773752Y-145090161D02*
X192868990Y-145185400D01*
X192868990Y-145185400D02*
X193011847Y-145233019D01*
X193011847Y-145233019D02*
X193107085Y-145233019D01*
X192249942Y-145233019D02*
X192249942Y-144233019D01*
X192249942Y-144233019D02*
X191868990Y-144233019D01*
X191868990Y-144233019D02*
X191773752Y-144280638D01*
X191773752Y-144280638D02*
X191726133Y-144328257D01*
X191726133Y-144328257D02*
X191678514Y-144423495D01*
X191678514Y-144423495D02*
X191678514Y-144566352D01*
X191678514Y-144566352D02*
X191726133Y-144661590D01*
X191726133Y-144661590D02*
X191773752Y-144709209D01*
X191773752Y-144709209D02*
X191868990Y-144756828D01*
X191868990Y-144756828D02*
X192249942Y-144756828D01*
X191297561Y-144328257D02*
X191249942Y-144280638D01*
X191249942Y-144280638D02*
X191154704Y-144233019D01*
X191154704Y-144233019D02*
X190916609Y-144233019D01*
X190916609Y-144233019D02*
X190821371Y-144280638D01*
X190821371Y-144280638D02*
X190773752Y-144328257D01*
X190773752Y-144328257D02*
X190726133Y-144423495D01*
X190726133Y-144423495D02*
X190726133Y-144518733D01*
X190726133Y-144518733D02*
X190773752Y-144661590D01*
X190773752Y-144661590D02*
X191345180Y-145233019D01*
X191345180Y-145233019D02*
X190726133Y-145233019D01*
X202109000Y-134095761D02*
X202156619Y-134238618D01*
X202156619Y-134238618D02*
X202156619Y-134476713D01*
X202156619Y-134476713D02*
X202109000Y-134571951D01*
X202109000Y-134571951D02*
X202061380Y-134619570D01*
X202061380Y-134619570D02*
X201966142Y-134667189D01*
X201966142Y-134667189D02*
X201870904Y-134667189D01*
X201870904Y-134667189D02*
X201775666Y-134619570D01*
X201775666Y-134619570D02*
X201728047Y-134571951D01*
X201728047Y-134571951D02*
X201680428Y-134476713D01*
X201680428Y-134476713D02*
X201632809Y-134286237D01*
X201632809Y-134286237D02*
X201585190Y-134190999D01*
X201585190Y-134190999D02*
X201537571Y-134143380D01*
X201537571Y-134143380D02*
X201442333Y-134095761D01*
X201442333Y-134095761D02*
X201347095Y-134095761D01*
X201347095Y-134095761D02*
X201251857Y-134143380D01*
X201251857Y-134143380D02*
X201204238Y-134190999D01*
X201204238Y-134190999D02*
X201156619Y-134286237D01*
X201156619Y-134286237D02*
X201156619Y-134524332D01*
X201156619Y-134524332D02*
X201204238Y-134667189D01*
X201489952Y-134952904D02*
X201489952Y-135333856D01*
X201156619Y-135095761D02*
X202013761Y-135095761D01*
X202013761Y-135095761D02*
X202109000Y-135143380D01*
X202109000Y-135143380D02*
X202156619Y-135238618D01*
X202156619Y-135238618D02*
X202156619Y-135333856D01*
X202156619Y-136095761D02*
X201632809Y-136095761D01*
X201632809Y-136095761D02*
X201537571Y-136048142D01*
X201537571Y-136048142D02*
X201489952Y-135952904D01*
X201489952Y-135952904D02*
X201489952Y-135762428D01*
X201489952Y-135762428D02*
X201537571Y-135667190D01*
X202109000Y-136095761D02*
X202156619Y-136000523D01*
X202156619Y-136000523D02*
X202156619Y-135762428D01*
X202156619Y-135762428D02*
X202109000Y-135667190D01*
X202109000Y-135667190D02*
X202013761Y-135619571D01*
X202013761Y-135619571D02*
X201918523Y-135619571D01*
X201918523Y-135619571D02*
X201823285Y-135667190D01*
X201823285Y-135667190D02*
X201775666Y-135762428D01*
X201775666Y-135762428D02*
X201775666Y-136000523D01*
X201775666Y-136000523D02*
X201728047Y-136095761D01*
X202156619Y-136571952D02*
X201489952Y-136571952D01*
X201680428Y-136571952D02*
X201585190Y-136619571D01*
X201585190Y-136619571D02*
X201537571Y-136667190D01*
X201537571Y-136667190D02*
X201489952Y-136762428D01*
X201489952Y-136762428D02*
X201489952Y-136857666D01*
X201489952Y-137048143D02*
X201489952Y-137429095D01*
X201156619Y-137191000D02*
X202013761Y-137191000D01*
X202013761Y-137191000D02*
X202109000Y-137238619D01*
X202109000Y-137238619D02*
X202156619Y-137333857D01*
X202156619Y-137333857D02*
X202156619Y-137429095D01*
X202156619Y-138286238D02*
X202156619Y-137714810D01*
X202156619Y-138000524D02*
X201156619Y-138000524D01*
X201156619Y-138000524D02*
X201299476Y-137905286D01*
X201299476Y-137905286D02*
X201394714Y-137810048D01*
X201394714Y-137810048D02*
X201442333Y-137714810D01*
%TO.C,JP3*%
D11*
X175492800Y-145528200D02*
X175492800Y-147528200D01*
X175492800Y-147528200D02*
X178292800Y-147528200D01*
X178292800Y-145528200D02*
X175492800Y-145528200D01*
X178292800Y-147528200D02*
X178292800Y-145528200D01*
%TO.C,J2*%
X166668200Y-36756600D02*
X166668200Y-33996600D01*
X197258200Y-33996600D02*
X166668200Y-33996600D01*
X197258200Y-36756600D02*
X166668200Y-36756600D01*
X197258200Y-36756600D02*
X197258200Y-33996600D01*
X198528200Y-36756600D02*
X199908200Y-36756600D01*
X199908200Y-36756600D02*
X199908200Y-35376600D01*
%TO.C,Select1*%
X170971800Y-129841000D02*
X170971800Y-142061000D01*
X170971800Y-129841000D02*
X173481800Y-129841000D01*
X170971800Y-142061000D02*
X173481800Y-142061000D01*
X175781800Y-129841000D02*
X178381800Y-129841000D01*
X175781800Y-142061000D02*
X178381800Y-142061000D01*
X180681800Y-129841000D02*
X183191800Y-129841000D01*
X180681800Y-142061000D02*
X183191800Y-142061000D01*
X183191800Y-142061000D02*
X183191800Y-129841000D01*
%TO.C,J6*%
X108705000Y-47812000D02*
X108705000Y-49192000D01*
X110085000Y-47812000D02*
X108705000Y-47812000D01*
X111355000Y-47812000D02*
X111355000Y-50572000D01*
X111355000Y-47812000D02*
X141945000Y-47812000D01*
X111355000Y-50572000D02*
X141945000Y-50572000D01*
X141945000Y-47812000D02*
X141945000Y-50572000D01*
%TO.C,JP2*%
X190492800Y-145578200D02*
X190492800Y-147578200D01*
X190492800Y-147578200D02*
X193292800Y-147578200D01*
X193292800Y-145578200D02*
X190492800Y-145578200D01*
X193292800Y-147578200D02*
X193292800Y-145578200D01*
%TO.C,Start1*%
X185471800Y-129841000D02*
X185471800Y-142061000D01*
X185471800Y-129841000D02*
X187981800Y-129841000D01*
X185471800Y-142061000D02*
X187981800Y-142061000D01*
X190281800Y-129841000D02*
X192881800Y-129841000D01*
X190281800Y-142061000D02*
X192881800Y-142061000D01*
X195181800Y-129841000D02*
X197691800Y-129841000D01*
X195181800Y-142061000D02*
X197691800Y-142061000D01*
X197691800Y-142061000D02*
X197691800Y-129841000D01*
%TD*%
M02*
