%TF.GenerationSoftware,KiCad,Pcbnew,10.0.3*%
%TF.CreationDate,2026-07-01T12:00:50-06:00*%
%TF.ProjectId,ACT_Labs_REX,4143545f-4c61-4627-935f-5245582e6b69,2.2*%
%TF.SameCoordinates,Original*%
%TF.FileFunction,Copper,L1,Top*%
%TF.FilePolarity,Positive*%
%FSLAX46Y46*%
G04 Gerber Fmt 4.6, Leading zero omitted, Abs format (unit mm)*
G04 Created by KiCad (PCBNEW 10.0.3) date 2026-07-01 12:00:50*
%MOMM*%
%LPD*%
G01*
G04 APERTURE LIST*
G04 Aperture macros list*
%AMRoundRect*
0 Rectangle with rounded corners*
0 $1 Rounding radius*
0 $2 $3 $4 $5 $6 $7 $8 $9 X,Y pos of 4 corners*
0 Add a 4 corners polygon primitive as box body*
4,1,4,$2,$3,$4,$5,$6,$7,$8,$9,$2,$3,0*
0 Add four circle primitives for the rounded corners*
1,1,$1+$1,$2,$3*
1,1,$1+$1,$4,$5*
1,1,$1+$1,$6,$7*
1,1,$1+$1,$8,$9*
0 Add four rect primitives between the rounded corners*
20,1,$1+$1,$2,$3,$4,$5,0*
20,1,$1+$1,$4,$5,$6,$7,0*
20,1,$1+$1,$6,$7,$8,$9,0*
20,1,$1+$1,$8,$9,$2,$3,0*%
%AMFreePoly0*
4,1,6,1.000000,0.000000,0.500000,-0.750000,-0.500000,-0.750000,-0.500000,0.750000,0.500000,0.750000,1.000000,0.000000,1.000000,0.000000,$1*%
%AMFreePoly1*
4,1,6,0.500000,-0.750000,-0.650000,-0.750000,-0.150000,0.000000,-0.650000,0.750000,0.500000,0.750000,0.500000,-0.750000,0.500000,-0.750000,$1*%
G04 Aperture macros list end*
%TA.AperFunction,ComponentPad*%
%ADD10R,1.700000X1.700000*%
%TD*%
%TA.AperFunction,ComponentPad*%
%ADD11C,1.700000*%
%TD*%
%TA.AperFunction,ComponentPad*%
%ADD12R,1.800000X1.800000*%
%TD*%
%TA.AperFunction,ComponentPad*%
%ADD13C,1.800000*%
%TD*%
%TA.AperFunction,WasherPad*%
%ADD14C,1.200000*%
%TD*%
%TA.AperFunction,ComponentPad*%
%ADD15RoundRect,0.285714X-0.514286X-0.514286X0.514286X-0.514286X0.514286X0.514286X-0.514286X0.514286X0*%
%TD*%
%TA.AperFunction,ComponentPad*%
%ADD16C,1.600000*%
%TD*%
%TA.AperFunction,SMDPad,CuDef*%
%ADD17RoundRect,0.250000X-0.650000X1.000000X-0.650000X-1.000000X0.650000X-1.000000X0.650000X1.000000X0*%
%TD*%
%TA.AperFunction,SMDPad,CuDef*%
%ADD18RoundRect,0.375000X-0.375000X0.625000X-0.375000X-0.625000X0.375000X-0.625000X0.375000X0.625000X0*%
%TD*%
%TA.AperFunction,SMDPad,CuDef*%
%ADD19RoundRect,0.500000X-1.400000X0.500000X-1.400000X-0.500000X1.400000X-0.500000X1.400000X0.500000X0*%
%TD*%
%TA.AperFunction,SMDPad,CuDef*%
%ADD20FreePoly0,90.000000*%
%TD*%
%TA.AperFunction,SMDPad,CuDef*%
%ADD21FreePoly1,90.000000*%
%TD*%
%TA.AperFunction,ComponentPad*%
%ADD22RoundRect,0.250000X-0.550000X0.550000X-0.550000X-0.550000X0.550000X-0.550000X0.550000X0.550000X0*%
%TD*%
%TA.AperFunction,ComponentPad*%
%ADD23RoundRect,0.250000X0.550000X-0.550000X0.550000X0.550000X-0.550000X0.550000X-0.550000X-0.550000X0*%
%TD*%
%TA.AperFunction,ComponentPad*%
%ADD24C,2.800000*%
%TD*%
%TA.AperFunction,ComponentPad*%
%ADD25RoundRect,0.285714X-0.702528X0.188242X-0.188242X-0.702528X0.702528X-0.188242X0.188242X0.702528X0*%
%TD*%
%TA.AperFunction,ComponentPad*%
%ADD26O,1.900000X1.524000*%
%TD*%
%TA.AperFunction,ComponentPad*%
%ADD27O,1.700000X2.900000*%
%TD*%
%TA.AperFunction,ViaPad*%
%ADD28C,0.600000*%
%TD*%
%TA.AperFunction,Conductor*%
%ADD29C,0.200000*%
%TD*%
%TA.AperFunction,Conductor*%
%ADD30C,0.254000*%
%TD*%
%TA.AperFunction,Conductor*%
%ADD31C,0.400000*%
%TD*%
G04 APERTURE END LIST*
D10*
%TO.P,J5,1,Pin_1_1*%
%TO.N,//AF_R1*%
X204557000Y-49346600D03*
D11*
%TO.P,J5,2,Pin_2_2*%
%TO.N,//GND*%
X204557000Y-51886600D03*
%TO.P,J5,3,Pin_3_3*%
%TO.N,//AF_L2*%
X204557000Y-54426600D03*
%TO.P,J5,4,Pin_4_4*%
%TO.N,//GND*%
X204557000Y-56966600D03*
%TO.P,J5,5,Pin_5_5*%
%TO.N,//AF_L1*%
X204557000Y-59506600D03*
%TO.P,J5,6,Pin_6_6*%
%TO.N,//GND*%
X204557000Y-62046600D03*
%TO.P,J5,7,Pin_7_7*%
%TO.N,//AF_R2*%
X204557000Y-64586600D03*
%TO.P,J5,8,Pin_8_8*%
%TO.N,//GND*%
X204557000Y-67126600D03*
%TD*%
D12*
%TO.P,D2,1,K_1*%
%TO.N,//AutoFire/GND*%
X132290000Y-77732000D03*
D13*
%TO.P,D2,2,A_2*%
%TO.N,//AutoFire/LED*%
X134830000Y-77732000D03*
%TD*%
D14*
%TO.P,SW2,*%
%TO.N,*%
X79132800Y-57040000D03*
X87807800Y-57040000D03*
D15*
%TO.P,SW2,1,A_1*%
%TO.N,//AutoFire/GND*%
X81157800Y-55690000D03*
D16*
%TO.P,SW2,2,B_2*%
%TO.N,//AutoFire/AF_CRUZ*%
X83407800Y-55740000D03*
%TO.P,SW2,3,C_3*%
%TO.N,unconnected-(SW2-C-Pad3)*%
X85782800Y-55740000D03*
%TO.P,SW2,4*%
%TO.N,N/C*%
X85807800Y-57990000D03*
%TO.P,SW2,5*%
%TO.N,//AutoFire/AF_CRUZ*%
X83482800Y-57990000D03*
%TO.P,SW2,6*%
%TO.N,N/C*%
X81207800Y-58015000D03*
%TD*%
D14*
%TO.P,SW4,*%
%TO.N,*%
X90207200Y-75662000D03*
X98882200Y-75662000D03*
D15*
%TO.P,SW4,1,A_1*%
%TO.N,//AutoFire/GND*%
X92232200Y-74312000D03*
D16*
%TO.P,SW4,2,B_2*%
%TO.N,//AutoFire/AF_L2*%
X94482200Y-74362000D03*
%TO.P,SW4,3,C_3*%
%TO.N,unconnected-(SW4-C-Pad3)*%
X96857200Y-74362000D03*
%TO.P,SW4,4*%
%TO.N,N/C*%
X96882200Y-76612000D03*
%TO.P,SW4,5*%
%TO.N,//AutoFire/AF_L2*%
X94557200Y-76612000D03*
%TO.P,SW4,6*%
%TO.N,N/C*%
X92282200Y-76637000D03*
%TD*%
D17*
%TO.P,D1,1,K_1*%
%TO.N,VCC_3V3*%
X160530000Y-67630000D03*
%TO.P,D1,2,A_2*%
%TO.N,PS1_PIN5*%
X160530000Y-71630000D03*
%TD*%
D16*
%TO.P,R1,1*%
%TO.N,VCC_3V3*%
X168020000Y-83820000D03*
%TO.P,R1,2*%
%TO.N,//PS1_DATA*%
X168020000Y-76200000D03*
%TD*%
D17*
%TO.P,D3,1,K_1*%
%TO.N,VCC_3V3*%
X164690000Y-111390000D03*
%TO.P,D3,2,A_2*%
X164690000Y-115390000D03*
%TD*%
D14*
%TO.P,SW7,*%
%TO.N,*%
X104398796Y-66088608D03*
X113073796Y-66088608D03*
D15*
%TO.P,SW7,1,A_1*%
%TO.N,//AutoFire/GND*%
X106423796Y-64738608D03*
D16*
%TO.P,SW7,2,B_2*%
%TO.N,//AutoFire/AF_TRIANGULO*%
X108673796Y-64788608D03*
%TO.P,SW7,3,C_3*%
%TO.N,unconnected-(SW7-C-Pad3)*%
X111048796Y-64788608D03*
%TO.P,SW7,4*%
%TO.N,N/C*%
X111073796Y-67038608D03*
%TO.P,SW7,5*%
%TO.N,//AutoFire/AF_TRIANGULO*%
X108748796Y-67038608D03*
%TO.P,SW7,6*%
%TO.N,N/C*%
X106473796Y-67063608D03*
%TD*%
D18*
%TO.P,U2,1,GND_1*%
%TO.N,//GND*%
X167172500Y-120010000D03*
%TO.P,U2,2,VO_2*%
%TO.N,VCC_3V3*%
X164872500Y-120010000D03*
D19*
X164872500Y-126310000D03*
D18*
%TO.P,U2,3,VI_3*%
%TO.N,BATT_FROM_TP*%
X162572500Y-120010000D03*
%TD*%
D20*
%TO.P,JP1,1,A_1*%
%TO.N,PS1_PIN5*%
X160880000Y-76825000D03*
D21*
%TO.P,JP1,2,B_2*%
X160880000Y-75375000D03*
%TD*%
D16*
%TO.P,R8,1*%
%TO.N,VCC_3V3*%
X134696200Y-69714600D03*
%TO.P,R8,2*%
%TO.N,//AutoFire/LED*%
X138506200Y-76313714D03*
%TD*%
D22*
%TO.P,C3,1*%
%TO.N,BATT_FROM_TP*%
X163710000Y-131000000D03*
D16*
%TO.P,C3,2*%
%TO.N,//GND*%
X163710000Y-133500000D03*
%TD*%
D23*
%TO.P,C1,1*%
%TO.N,VCC_3V3*%
X163195000Y-50840000D03*
D16*
%TO.P,C1,2*%
%TO.N,//GND*%
X163195000Y-48340000D03*
%TD*%
D14*
%TO.P,SW8,*%
%TO.N,*%
X109928188Y-75941500D03*
X118603188Y-75941500D03*
D15*
%TO.P,SW8,1,A_1*%
%TO.N,//AutoFire/GND*%
X111953188Y-74591500D03*
D16*
%TO.P,SW8,2,B_2*%
%TO.N,//AutoFire/AF_R2*%
X114203188Y-74641500D03*
%TO.P,SW8,3,C_3*%
%TO.N,unconnected-(SW8-C-Pad3)*%
X116578188Y-74641500D03*
%TO.P,SW8,4*%
%TO.N,N/C*%
X116603188Y-76891500D03*
%TO.P,SW8,5*%
%TO.N,//AutoFire/AF_R2*%
X114278188Y-76891500D03*
%TO.P,SW8,6*%
%TO.N,N/C*%
X112003188Y-76916500D03*
%TD*%
D10*
%TO.P,J1,1,Pin_1_1*%
%TO.N,//PS1_DATA*%
X164080000Y-82804000D03*
D11*
%TO.P,J1,2,Pin_2_2*%
%TO.N,//PS1_CMD*%
X164080000Y-80264000D03*
%TO.P,J1,3,Pin_3_3*%
%TO.N,//VIB_NC*%
X164080000Y-77724000D03*
%TO.P,J1,4,Pin_4_4*%
%TO.N,//GND*%
X164080000Y-75184000D03*
%TO.P,J1,5,Pin_5_5*%
%TO.N,PS1_PIN5*%
X164080000Y-72644000D03*
%TO.P,J1,6,Pin_6_6*%
%TO.N,//PS1_ATT*%
X164080000Y-70104000D03*
%TO.P,J1,7,Pin_7_7*%
%TO.N,//PS1_CLK*%
X164080000Y-67564000D03*
%TO.P,J1,8,Pin_8_8*%
%TO.N,unconnected-(J1-Pin_8-Pad8)*%
X164080000Y-65024000D03*
%TO.P,J1,9,Pin_9_9*%
%TO.N,//PS1_ACK*%
X164080000Y-62484000D03*
%TD*%
D14*
%TO.P,SW1,*%
%TO.N,*%
X73563600Y-47832039D03*
X82238600Y-47832039D03*
D15*
%TO.P,SW1,1,A_1*%
%TO.N,//AutoFire/GND*%
X75588600Y-46482039D03*
D16*
%TO.P,SW1,2,B_2*%
%TO.N,//AutoFire/AF_L1*%
X77838600Y-46532039D03*
%TO.P,SW1,3,C_3*%
%TO.N,unconnected-(SW1-C-Pad3)*%
X80213600Y-46532039D03*
%TO.P,SW1,4*%
%TO.N,N/C*%
X80238600Y-48782039D03*
%TO.P,SW1,5*%
%TO.N,//AutoFire/AF_L1*%
X77913600Y-48782039D03*
%TO.P,SW1,6*%
%TO.N,N/C*%
X75638600Y-48807039D03*
%TD*%
D14*
%TO.P,SW6,*%
%TO.N,*%
X99007188Y-56967700D03*
X107682188Y-56967700D03*
D15*
%TO.P,SW6,1,A_1*%
%TO.N,//AutoFire/GND*%
X101032188Y-55617700D03*
D16*
%TO.P,SW6,2,B_2*%
%TO.N,//AutoFire/AF_CUADRADO*%
X103282188Y-55667700D03*
%TO.P,SW6,3,C_3*%
%TO.N,unconnected-(SW6-C-Pad3)*%
X105657188Y-55667700D03*
%TO.P,SW6,4*%
%TO.N,N/C*%
X105682188Y-57917700D03*
%TO.P,SW6,5*%
%TO.N,//AutoFire/AF_CUADRADO*%
X103357188Y-57917700D03*
%TO.P,SW6,6*%
%TO.N,N/C*%
X101082188Y-57942700D03*
%TD*%
D24*
%TO.P,H2,1,1_1*%
%TO.N,//GND*%
X158790000Y-144800000D03*
%TD*%
D14*
%TO.P,SW9,*%
%TO.N,*%
X127476767Y-57942292D03*
X131814267Y-65455063D03*
D25*
%TO.P,SW9,1,A_1*%
%TO.N,//AutoFire/GND*%
X129658401Y-59020994D03*
D16*
%TO.P,SW9,2,B_2*%
%TO.N,//AutoFire/AF_MODE*%
X130740100Y-60994551D03*
%TO.P,SW9,3,C_3*%
%TO.N,unconnected-(SW9-C-Pad3)*%
X131927600Y-63051361D03*
%TO.P,SW9,4*%
%TO.N,N/C*%
X129991543Y-64198012D03*
%TO.P,SW9,5*%
X128829043Y-62184503D03*
%TO.P,SW9,6*%
X127669892Y-60226795D03*
%TD*%
%TO.P,R5,1*%
%TO.N,VCC_3V3*%
X186055000Y-101108026D03*
%TO.P,R5,2*%
%TO.N,//JP3_DERECHA*%
X186055000Y-108728026D03*
%TD*%
%TO.P,R3,1*%
%TO.N,VCC_3V3*%
X180885000Y-101108200D03*
%TO.P,R3,2*%
%TO.N,//JP3_IZQUIERDA*%
X180885000Y-108728200D03*
%TD*%
D14*
%TO.P,SW3,*%
%TO.N,*%
X84370000Y-66336400D03*
X93045000Y-66336400D03*
D15*
%TO.P,SW3,1,A_1*%
%TO.N,//AutoFire/GND*%
X86395000Y-64986400D03*
D16*
%TO.P,SW3,2,B_2*%
%TO.N,//AutoFire/AF_CIRCULO*%
X88645000Y-65036400D03*
%TO.P,SW3,3,C_3*%
%TO.N,unconnected-(SW3-C-Pad3)*%
X91020000Y-65036400D03*
%TO.P,SW3,4*%
%TO.N,N/C*%
X91045000Y-67286400D03*
%TO.P,SW3,5*%
%TO.N,//AutoFire/AF_CIRCULO*%
X88720000Y-67286400D03*
%TO.P,SW3,6*%
%TO.N,N/C*%
X86445000Y-67311400D03*
%TD*%
D14*
%TO.P,SW10,*%
%TO.N,*%
X139064824Y-58145492D03*
X143402324Y-65658263D03*
D25*
%TO.P,SW10,1,A_1*%
%TO.N,BATT_FROM_TP*%
X141246458Y-59224194D03*
D16*
%TO.P,SW10,2,B_2*%
%TO.N,VCC_3V3*%
X142328157Y-61197751D03*
%TO.P,SW10,3,C_3*%
%TO.N,//AutoFire/GND*%
X143515657Y-63254561D03*
%TO.P,SW10,4*%
%TO.N,N/C*%
X141579600Y-64401212D03*
%TO.P,SW10,5*%
%TO.N,VCC_3V3*%
X140417100Y-62387703D03*
%TO.P,SW10,6*%
%TO.N,N/C*%
X139257949Y-60429995D03*
%TD*%
D26*
%TO.P,U1,1,VIN_1*%
%TO.N,unconnected-(U1-VIN-Pad1)*%
X197530340Y-54121800D03*
%TO.P,U1,2,GND_2*%
%TO.N,//GND*%
X197530340Y-56661800D03*
%TO.P,U1,3,GPIO13_3*%
%TO.N,//AF_R2*%
X197530340Y-59201800D03*
%TO.P,U1,4,GPIO12_4*%
%TO.N,//AF_CUADRADO*%
X197530340Y-61741800D03*
%TO.P,U1,5,GPIO14_5*%
%TO.N,//AF_TRIANGULO*%
X197530340Y-64281800D03*
%TO.P,U1,6,GPIO27_6*%
%TO.N,//AF_L1*%
X197530340Y-66821800D03*
%TO.P,U1,7,GPIO26_7*%
%TO.N,//AF_CIRCULO*%
X197530340Y-69361800D03*
%TO.P,U1,8,GPIO25_8*%
%TO.N,//AF_CRUZ*%
X197530340Y-71901800D03*
%TO.P,U1,9,GPIO33_9*%
%TO.N,//AF_R1*%
X197530340Y-74441800D03*
%TO.P,U1,10,GPIO32_10*%
%TO.N,//AF_L2*%
X197530340Y-76981800D03*
%TO.P,U1,11,GPIO35_11*%
%TO.N,//JP3_ABAJO*%
X197530340Y-79521800D03*
%TO.P,U1,12,GPIO34_12*%
%TO.N,//JP3_IZQUIERDA*%
X197530340Y-82061800D03*
%TO.P,U1,13,GPIO39_13*%
%TO.N,//JP3_DERECHA*%
X197530340Y-84601800D03*
%TO.P,U1,14,GPIO36_14*%
%TO.N,//JP3_ARRIBA*%
X197530340Y-87141800D03*
%TO.P,U1,15,EN_15*%
%TO.N,unconnected-(U1-EN-Pad15)*%
X197530340Y-89681800D03*
%TO.P,U1,16,3.3v_16*%
%TO.N,VCC_3V3*%
X172130340Y-54121800D03*
%TO.P,U1,17,GND_17*%
%TO.N,//GND*%
X172130340Y-56661800D03*
%TO.P,U1,18,GPIO15_18*%
%TO.N,//AF_MODE*%
X172130340Y-59201800D03*
%TO.P,U1,19,GPIO2_19*%
%TO.N,unconnected-(U1-GPIO2-Pad19)*%
X172130340Y-61741800D03*
%TO.P,U1,20,GPIO4_20*%
%TO.N,unconnected-(U1-GPIO4-Pad20)*%
X172130340Y-64281800D03*
%TO.P,U1,21,GPIO16_21*%
%TO.N,//PS1_CMD*%
X172130340Y-66821800D03*
%TO.P,U1,22,GPIO17_22*%
%TO.N,//PS1_ACK*%
X172130340Y-69361800D03*
%TO.P,U1,23,GPIO5_23*%
%TO.N,//PS1_CLK*%
X172130340Y-71901800D03*
%TO.P,U1,24,GPIO18_24*%
%TO.N,//PS1_ATT*%
X172130340Y-74441800D03*
%TO.P,U1,25,GPIO19_25*%
%TO.N,//PS1_DATA*%
X172130340Y-76981800D03*
%TO.P,U1,26,GPIO21_26*%
%TO.N,//START*%
X172130340Y-79521800D03*
%TO.P,U1,27,GPIO3_27*%
%TO.N,unconnected-(U1-GPIO3-Pad27)*%
X172130340Y-82061800D03*
%TO.P,U1,28,GPIO1_28*%
%TO.N,unconnected-(U1-GPIO1-Pad28)*%
X172130340Y-84601800D03*
%TO.P,U1,29,GPIO22_29*%
%TO.N,//SELECT*%
X172130340Y-87141800D03*
%TO.P,U1,30,GPIO23_30*%
%TO.N,unconnected-(U1-GPIO23-Pad30)*%
X172130340Y-89681800D03*
%TD*%
D16*
%TO.P,R4,1*%
%TO.N,VCC_3V3*%
X175205000Y-101108200D03*
%TO.P,R4,2*%
%TO.N,//JP3_ABAJO*%
X175205000Y-108728200D03*
%TD*%
D24*
%TO.P,H1,1,1_1*%
%TO.N,BATT_FROM_TP*%
X158809400Y-140682051D03*
%TD*%
D10*
%TO.P,J4,1,Pin_1_1*%
%TO.N,//AF_TRIANGULO*%
X204455400Y-73425800D03*
D11*
%TO.P,J4,2,Pin_2_2*%
%TO.N,//GND*%
X204455400Y-75965800D03*
%TO.P,J4,3,Pin_3_3*%
%TO.N,//AF_CIRCULO*%
X204455400Y-78505800D03*
%TO.P,J4,4,Pin_4_4*%
%TO.N,//GND*%
X204455400Y-81045800D03*
%TO.P,J4,5,Pin_5_5*%
%TO.N,//AF_CRUZ*%
X204455400Y-83585800D03*
%TO.P,J4,6,Pin_6_6*%
%TO.N,//GND*%
X204455400Y-86125800D03*
%TO.P,J4,7,Pin_7_7*%
%TO.N,//AF_CUADRADO*%
X204455400Y-88665800D03*
%TO.P,J4,8,Pin_8_8*%
%TO.N,//GND*%
X204455400Y-91205800D03*
%TD*%
D10*
%TO.P,J3,1,Pin_1_1*%
%TO.N,//JP3_ABAJO*%
X174977800Y-115858200D03*
D11*
%TO.P,J3,2,Pin_2_2*%
%TO.N,//GND*%
X177517800Y-115858200D03*
%TO.P,J3,3,Pin_3_3*%
%TO.N,//JP3_IZQUIERDA*%
X180057800Y-115858200D03*
%TO.P,J3,4,Pin_4_4*%
%TO.N,//GND*%
X182597800Y-115858200D03*
%TO.P,J3,5,Pin_5_5*%
%TO.N,//JP3_DERECHA*%
X185137800Y-115858200D03*
%TO.P,J3,6,Pin_6_6*%
%TO.N,//GND*%
X187677800Y-115858200D03*
%TO.P,J3,7,Pin_7_7*%
%TO.N,//JP3_ARRIBA*%
X190217800Y-115858200D03*
%TO.P,J3,8,Pin_8_8*%
%TO.N,//GND*%
X192757800Y-115858200D03*
%TD*%
D23*
%TO.P,C4,1*%
%TO.N,VCC_3V3*%
X166650000Y-106910000D03*
D16*
%TO.P,C4,2*%
%TO.N,//GND*%
X166650000Y-104410000D03*
%TD*%
%TO.P,R2,1*%
%TO.N,VCC_3V3*%
X192025000Y-101147802D03*
%TO.P,R2,2*%
%TO.N,//JP3_ARRIBA*%
X192025000Y-108767802D03*
%TD*%
D14*
%TO.P,SW5,*%
%TO.N,*%
X93633188Y-47690400D03*
X102308188Y-47690400D03*
D15*
%TO.P,SW5,1,A_1*%
%TO.N,//AutoFire/GND*%
X95658188Y-46340400D03*
D16*
%TO.P,SW5,2,B_2*%
%TO.N,//AutoFire/AF_R1*%
X97908188Y-46390400D03*
%TO.P,SW5,3,C_3*%
%TO.N,unconnected-(SW5-C-Pad3)*%
X100283188Y-46390400D03*
%TO.P,SW5,4*%
%TO.N,N/C*%
X100308188Y-48640400D03*
%TO.P,SW5,5*%
%TO.N,//AutoFire/AF_R1*%
X97983188Y-48640400D03*
%TO.P,SW5,6*%
%TO.N,N/C*%
X95708188Y-48665400D03*
%TD*%
%TO.P,C2,1*%
%TO.N,VCC_3V3*%
X166370000Y-56154000D03*
%TO.P,C2,2*%
%TO.N,//GND*%
X166370000Y-58654000D03*
%TD*%
D10*
%TO.P,J2,1,Pin_1_1*%
%TO.N,VCC_3V3*%
X198528200Y-35376600D03*
D11*
%TO.P,J2,2,Pin_2_2*%
%TO.N,//AF_MODE*%
X195988200Y-35376600D03*
%TO.P,J2,3,Pin_3_3*%
%TO.N,unconnected-(J2-Pin_3-Pad3)*%
X193448200Y-35376600D03*
%TO.P,J2,4,Pin_4_4*%
%TO.N,//AF_R2*%
X190908200Y-35376600D03*
%TO.P,J2,5,Pin_5_5*%
%TO.N,//AF_CUADRADO*%
X188368200Y-35376600D03*
%TO.P,J2,6,Pin_6_6*%
%TO.N,//AF_TRIANGULO*%
X185828200Y-35376600D03*
%TO.P,J2,7,Pin_7_7*%
%TO.N,//AF_L1*%
X183288200Y-35376600D03*
%TO.P,J2,8,Pin_8_8*%
%TO.N,//AF_R1*%
X180748200Y-35376600D03*
%TO.P,J2,9,Pin_9_9*%
%TO.N,//AF_CRUZ*%
X178208200Y-35376600D03*
%TO.P,J2,10,Pin_10_10*%
%TO.N,//AF_CIRCULO*%
X175668200Y-35376600D03*
%TO.P,J2,11,Pin_11_11*%
%TO.N,//AF_L2*%
X173128200Y-35376600D03*
%TO.P,J2,12,Pin_12_12*%
%TO.N,BATT_FROM_TP*%
X170588200Y-35376600D03*
%TO.P,J2,13,Pin_13_13*%
%TO.N,//GND*%
X168048200Y-35376600D03*
%TD*%
D27*
%TO.P,Select1,1,1_1*%
%TO.N,N/C*%
X174581800Y-142201000D03*
%TO.P,Select1,2,2_2*%
X179581800Y-129701000D03*
%TO.P,Select1,3*%
%TO.N,//SELECT*%
X179581800Y-142201000D03*
%TO.P,Select1,4*%
X174581800Y-129701000D03*
%TD*%
D10*
%TO.P,J6,1,Pin_1_1*%
%TO.N,VCC_3V3*%
X110085000Y-49192000D03*
D11*
%TO.P,J6,2,Pin_2_2*%
%TO.N,//AutoFire/AF_MODE*%
X112625000Y-49192000D03*
%TO.P,J6,3,Pin_3_3*%
%TO.N,unconnected-(J6-Pin_3-Pad3)*%
X115165000Y-49192000D03*
%TO.P,J6,4,Pin_4_4*%
%TO.N,//AutoFire/AF_R2*%
X117705000Y-49192000D03*
%TO.P,J6,5,Pin_5_5*%
%TO.N,//AutoFire/AF_CUADRADO*%
X120245000Y-49192000D03*
%TO.P,J6,6,Pin_6_6*%
%TO.N,//AutoFire/AF_TRIANGULO*%
X122785000Y-49192000D03*
%TO.P,J6,7,Pin_7_7*%
%TO.N,//AutoFire/AF_L1*%
X125325000Y-49192000D03*
%TO.P,J6,8,Pin_8_8*%
%TO.N,//AutoFire/AF_R1*%
X127865000Y-49192000D03*
%TO.P,J6,9,Pin_9_9*%
%TO.N,//AutoFire/AF_CRUZ*%
X130405000Y-49192000D03*
%TO.P,J6,10,Pin_10_10*%
%TO.N,//AutoFire/AF_CIRCULO*%
X132945000Y-49192000D03*
%TO.P,J6,11,Pin_11_11*%
%TO.N,//AutoFire/AF_L2*%
X135485000Y-49192000D03*
%TO.P,J6,12,Pin_12_12*%
%TO.N,BATT_FROM_TP*%
X138025000Y-49192000D03*
%TO.P,J6,13,Pin_13_13*%
%TO.N,//AutoFire/GND*%
X140565000Y-49192000D03*
%TD*%
D27*
%TO.P,Start1,1,1_1*%
%TO.N,//START*%
X189081800Y-142201000D03*
%TO.P,Start1,2,2_2*%
%TO.N,N/C*%
X194081800Y-129701000D03*
%TO.P,Start1,3*%
X194081800Y-142201000D03*
%TO.P,Start1,4*%
%TO.N,//START*%
X189081800Y-129701000D03*
%TD*%
D28*
%TO.N,//AF_R1*%
X200067800Y-76398200D03*
X192617800Y-52178200D03*
X182427800Y-37098200D03*
%TO.N,//GND*%
X168451162Y-120057631D03*
%TO.N,//AF_L2*%
X183177800Y-53933200D03*
X192117800Y-53878200D03*
%TO.N,//AF_L1*%
X200227800Y-67038200D03*
%TO.N,//AutoFire/AF_CRUZ*%
X105300000Y-53000000D03*
X91700000Y-53000000D03*
%TO.N,VCC_3V3*%
X185040000Y-39120000D03*
X160147000Y-65659000D03*
X168720000Y-100290000D03*
X180410000Y-39120000D03*
%TO.N,//AutoFire/AF_TRIANGULO*%
X121520000Y-54892000D03*
%TO.N,BATT_FROM_TP*%
X160420000Y-120040000D03*
%TO.N,//AutoFire/AF_R2*%
X117770000Y-45992000D03*
%TO.N,//PS1_CMD*%
X168529000Y-67310000D03*
%TO.N,//AutoFire/AF_L1*%
X105370000Y-51942000D03*
X91770000Y-51942000D03*
%TO.N,//AutoFire/AF_MODE*%
X118870000Y-52742000D03*
X123070000Y-52742000D03*
%TO.N,//AutoFire/AF_CIRCULO*%
X125775000Y-54425000D03*
%TO.N,//AF_CIRCULO*%
X189200000Y-69350000D03*
%TO.N,//SELECT*%
X171977800Y-101988200D03*
X172267800Y-116888200D03*
%TD*%
%TO.N,//AF_R1*%
D29*
X207107800Y-70398200D02*
X207127800Y-70378200D01*
X192617800Y-52178200D02*
X201725400Y-52178200D01*
X202567800Y-70398200D02*
X207107800Y-70398200D01*
X180748200Y-35376600D02*
X182427800Y-37056200D01*
X207127800Y-70378200D02*
X207127800Y-49978200D01*
X202477800Y-70488200D02*
X202567800Y-70398200D01*
X201725400Y-52178200D02*
X204557000Y-49346600D01*
X207127800Y-49978200D02*
X206496200Y-49346600D01*
X200067800Y-76398200D02*
X200417800Y-76398200D01*
X202477800Y-74338200D02*
X202477800Y-70488200D01*
X182427800Y-37056200D02*
X182427800Y-37098200D01*
X200417800Y-76398200D02*
X202477800Y-74338200D01*
X206496200Y-49346600D02*
X204557000Y-49346600D01*
%TO.N,//GND*%
D30*
X167172500Y-120010000D02*
X168403531Y-120010000D01*
X168403531Y-120010000D02*
X168451162Y-120057631D01*
%TO.N,//AF_L2*%
D29*
X193597800Y-55358200D02*
X203487800Y-55358200D01*
X183177800Y-53933200D02*
X182782800Y-53933200D01*
X182782800Y-53933200D02*
X173128200Y-44278600D01*
X192117800Y-53878200D02*
X193597800Y-55358200D01*
X204419400Y-54426600D02*
X204557000Y-54426600D01*
X203487800Y-55358200D02*
X204419400Y-54426600D01*
X173128200Y-44278600D02*
X173128200Y-35376600D01*
%TO.N,//AF_L1*%
X200227800Y-66728200D02*
X202587800Y-64368200D01*
X202587800Y-64368200D02*
X202587800Y-61475800D01*
X186725000Y-56700000D02*
X196846800Y-66821800D01*
X186725000Y-38813400D02*
X186725000Y-56700000D01*
X183288200Y-35376600D02*
X186725000Y-38813400D01*
X200227800Y-67038200D02*
X200227800Y-66728200D01*
X196846800Y-66821800D02*
X197530340Y-66821800D01*
X202587800Y-61475800D02*
X204557000Y-59506600D01*
%TO.N,//AF_R2*%
X196231400Y-59201800D02*
X197530340Y-59201800D01*
X190908200Y-53878600D02*
X196231400Y-59201800D01*
X190908200Y-35376600D02*
X190908200Y-53878600D01*
%TO.N,//AutoFire/LED*%
X137087914Y-77732000D02*
X138506200Y-76313714D01*
X134830000Y-77732000D02*
X137087914Y-77732000D01*
%TO.N,//AutoFire/AF_CRUZ*%
X83482800Y-57990000D02*
X83482800Y-55815000D01*
X91700000Y-53000000D02*
X86147800Y-53000000D01*
X128870000Y-53342000D02*
X130405000Y-51807000D01*
X130405000Y-51807000D02*
X130405000Y-49192000D01*
X105300000Y-53000000D02*
X105462000Y-53000000D01*
X83482800Y-55815000D02*
X83407800Y-55740000D01*
X105462000Y-53000000D02*
X105804000Y-53342000D01*
X105804000Y-53342000D02*
X128870000Y-53342000D01*
X86147800Y-53000000D02*
X83407800Y-55740000D01*
%TO.N,//AutoFire/AF_L2*%
X97215200Y-79270000D02*
X121492000Y-79270000D01*
X94557200Y-74437000D02*
X94482200Y-74362000D01*
X135120000Y-49557000D02*
X135485000Y-49192000D01*
X135120000Y-65642000D02*
X135120000Y-49557000D01*
X94557200Y-76612000D02*
X97215200Y-79270000D01*
X94557200Y-76612000D02*
X94557200Y-74437000D01*
X121492000Y-79270000D02*
X135120000Y-65642000D01*
%TO.N,VCC_3V3*%
X160150000Y-67504000D02*
X160150000Y-65662000D01*
X160150000Y-65662000D02*
X160147000Y-65659000D01*
D31*
X164690000Y-115390000D02*
X164690000Y-119827500D01*
D29*
X168720000Y-100290000D02*
X168720000Y-100220000D01*
D31*
X180410000Y-39120000D02*
X185040000Y-39120000D01*
D29*
X160276000Y-67630000D02*
X160150000Y-67504000D01*
X163900000Y-116180000D02*
X164690000Y-115390000D01*
D31*
X164690000Y-108870000D02*
X166650000Y-106910000D01*
D29*
X164872500Y-126310000D02*
X164872500Y-120010000D01*
D31*
X164690000Y-111390000D02*
X164690000Y-108870000D01*
D29*
X164690000Y-119827500D02*
X164872500Y-120010000D01*
D31*
X168720000Y-104840000D02*
X168720000Y-100290000D01*
X166650000Y-106910000D02*
X168720000Y-104840000D01*
D29*
X141607052Y-61197751D02*
X142328157Y-61197751D01*
X160530000Y-67630000D02*
X160276000Y-67630000D01*
%TO.N,PS1_PIN5*%
X160530000Y-75025000D02*
X160880000Y-75375000D01*
X162433000Y-73279000D02*
X163068000Y-72644000D01*
X163068000Y-72644000D02*
X164846000Y-72644000D01*
X160880000Y-76825000D02*
X162433000Y-76825000D01*
X162433000Y-76825000D02*
X162433000Y-73279000D01*
X160530000Y-71630000D02*
X160530000Y-75025000D01*
%TO.N,//PS1_DATA*%
X164496000Y-82804000D02*
X168005000Y-79295000D01*
X168020000Y-76200000D02*
X171348540Y-76200000D01*
X164080000Y-82804000D02*
X164496000Y-82804000D01*
X171348540Y-76200000D02*
X172130340Y-76981800D01*
X168005000Y-79295000D02*
X168020000Y-79310000D01*
X168020000Y-79310000D02*
X168020000Y-76200000D01*
%TO.N,//AutoFire/AF_TRIANGULO*%
X117458000Y-54892000D02*
X121520000Y-54892000D01*
X108673796Y-64788608D02*
X108673796Y-63676204D01*
X108748796Y-67038608D02*
X108748796Y-64863608D01*
X108748796Y-64863608D02*
X108673796Y-64788608D01*
X108673796Y-63676204D02*
X117458000Y-54892000D01*
%TO.N,BATT_FROM_TP*%
D31*
X138025000Y-49192000D02*
X141246458Y-52413458D01*
X141246458Y-57440000D02*
X141246458Y-59224194D01*
D29*
X160450000Y-120010000D02*
X160420000Y-120040000D01*
D31*
X162572500Y-120010000D02*
X160450000Y-120010000D01*
X141246458Y-52413458D02*
X141246458Y-57440000D01*
%TO.N,//AutoFire/AF_R2*%
D29*
X117705000Y-49192000D02*
X117705000Y-46057000D01*
X114278188Y-74716500D02*
X114203188Y-74641500D01*
X117705000Y-46057000D02*
X117770000Y-45992000D01*
%TO.N,//PS1_CMD*%
X168529000Y-67310000D02*
X169017200Y-66821800D01*
X169017200Y-66821800D02*
X172130340Y-66821800D01*
%TO.N,//PS1_ATT*%
X169491800Y-74441800D02*
X172130340Y-74441800D01*
X165154000Y-70104000D02*
X169491800Y-74441800D01*
X164846000Y-70104000D02*
X165154000Y-70104000D01*
%TO.N,//PS1_CLK*%
X164846000Y-68146000D02*
X168601800Y-71901800D01*
X168601800Y-71901800D02*
X172130340Y-71901800D01*
X164846000Y-67564000D02*
X164846000Y-68146000D01*
%TO.N,//PS1_ACK*%
X166050000Y-66675000D02*
X168844000Y-69469000D01*
X166050000Y-63688000D02*
X166050000Y-66675000D01*
X168844000Y-69469000D02*
X172023140Y-69469000D01*
X172130340Y-69361800D02*
X172236740Y-69468200D01*
X172023140Y-69469000D02*
X172130340Y-69361800D01*
X164846000Y-62484000D02*
X166050000Y-63688000D01*
%TO.N,//AutoFire/AF_L1*%
X77913600Y-48782039D02*
X77913600Y-46607039D01*
X105370000Y-51942000D02*
X105570000Y-52142000D01*
X105570000Y-52142000D02*
X124170000Y-52142000D01*
X124170000Y-52142000D02*
X125325000Y-50987000D01*
X77913600Y-48782039D02*
X81073561Y-51942000D01*
X77913600Y-46607039D02*
X77838600Y-46532039D01*
X125325000Y-50987000D02*
X125325000Y-49192000D01*
X81073561Y-51942000D02*
X91770000Y-51942000D01*
%TO.N,//AutoFire/AF_MODE*%
X118870000Y-52742000D02*
X123070000Y-52742000D01*
%TO.N,//JP3_DERECHA*%
X188800000Y-91966000D02*
X188800000Y-106626000D01*
X185137800Y-108848026D02*
X185935000Y-108848026D01*
X185137800Y-115858200D02*
X185137800Y-108848026D01*
X188800000Y-106626000D02*
X186697974Y-108728026D01*
X186697974Y-108728026D02*
X186055000Y-108728026D01*
X185935000Y-108848026D02*
X186055000Y-108728026D01*
X196164200Y-84601800D02*
X188800000Y-91966000D01*
X197530340Y-84601800D02*
X196164200Y-84601800D01*
%TO.N,//JP3_IZQUIERDA*%
X182975000Y-96617140D02*
X182975000Y-106991000D01*
X181237800Y-108728200D02*
X180885000Y-108728200D01*
X180057800Y-115858200D02*
X180057800Y-108938200D01*
X180057800Y-108938200D02*
X180675000Y-108938200D01*
X180675000Y-108938200D02*
X180885000Y-108728200D01*
X197530340Y-82615660D02*
X197530340Y-82061800D01*
X197530340Y-82061800D02*
X182975000Y-96617140D01*
X182975000Y-106991000D02*
X181237800Y-108728200D01*
%TO.N,//AutoFire/AF_CIRCULO*%
X132945000Y-50905000D02*
X132945000Y-49192000D01*
X88645000Y-65036400D02*
X88645000Y-64317000D01*
X88720000Y-65111400D02*
X88645000Y-65036400D01*
X125775000Y-54425000D02*
X129425000Y-54425000D01*
X129425000Y-54425000D02*
X132945000Y-50905000D01*
%TO.N,//AF_CUADRADO*%
X199317800Y-83508200D02*
X199317800Y-61878200D01*
X202307800Y-86518200D02*
X202307800Y-86498200D01*
X197530340Y-61470740D02*
X197530340Y-61741800D01*
X199181400Y-61741800D02*
X197530340Y-61741800D01*
X202307800Y-86498200D02*
X199317800Y-83508200D01*
X189247800Y-53188200D02*
X197530340Y-61470740D01*
X199317800Y-61878200D02*
X199181400Y-61741800D01*
X188368200Y-35376600D02*
X189247800Y-36256200D01*
X204455400Y-88665800D02*
X202307800Y-86518200D01*
X189247800Y-36256200D02*
X189247800Y-53188200D01*
%TO.N,//AF_TRIANGULO*%
X197363940Y-64448200D02*
X197530340Y-64281800D01*
X185828200Y-35376600D02*
X187697800Y-37246200D01*
X197148200Y-64448200D02*
X197363940Y-64448200D01*
X187697800Y-37246200D02*
X187697800Y-54997800D01*
X187697800Y-54997800D02*
X197148200Y-64448200D01*
%TO.N,//AF_CIRCULO*%
X189200000Y-69350000D02*
X185419600Y-69350000D01*
X185419600Y-69350000D02*
X184247800Y-68178200D01*
X184247800Y-68178200D02*
X184247800Y-51297800D01*
X175700000Y-35408400D02*
X175668200Y-35376600D01*
X175700000Y-42750000D02*
X175700000Y-35408400D01*
X184247800Y-51297800D02*
X175700000Y-42750000D01*
%TO.N,//AF_CRUZ*%
X185600000Y-50775000D02*
X185600000Y-60875000D01*
X178208200Y-43383200D02*
X185600000Y-50775000D01*
X185600000Y-60875000D02*
X194013200Y-69288200D01*
X194387800Y-69639671D02*
X194387800Y-69662800D01*
X194036329Y-69288200D02*
X194387800Y-69639671D01*
X196626800Y-71901800D02*
X197530340Y-71901800D01*
X194387800Y-69662800D02*
X196626800Y-71901800D01*
X194013200Y-69288200D02*
X194036329Y-69288200D01*
X178208200Y-35376600D02*
X178208200Y-43383200D01*
%TO.N,//JP3_ABAJO*%
X176478200Y-108728200D02*
X175205000Y-108728200D01*
X177287800Y-108078200D02*
X177287800Y-100028200D01*
X176597800Y-108738200D02*
X176627800Y-108738200D01*
X197530340Y-79785660D02*
X197530340Y-79521800D01*
X176488200Y-108738200D02*
X176478200Y-108728200D01*
X176587800Y-108728200D02*
X176597800Y-108738200D01*
X174977800Y-108955400D02*
X175205000Y-108728200D01*
X177287800Y-100028200D02*
X197530340Y-79785660D01*
X176597800Y-108738200D02*
X176488200Y-108738200D01*
X174977800Y-115858200D02*
X174977800Y-108955400D01*
X176627800Y-108738200D02*
X177287800Y-108078200D01*
%TO.N,//JP3_ARRIBA*%
X192678198Y-108767802D02*
X192025000Y-108767802D01*
X199297800Y-97658200D02*
X199297800Y-87148200D01*
X191100000Y-108767802D02*
X192025000Y-108767802D01*
X192678198Y-108767802D02*
X199300000Y-102146000D01*
X199297800Y-87148200D02*
X199304200Y-87141800D01*
X190217800Y-115858200D02*
X190217800Y-109537802D01*
X199300000Y-97660400D02*
X199297800Y-97658200D01*
X190987800Y-108767802D02*
X191100000Y-108767802D01*
X190217800Y-109537802D02*
X190987800Y-108767802D01*
X199300000Y-102146000D02*
X199300000Y-97660400D01*
X191100000Y-108767802D02*
X192678198Y-108767802D01*
X199304200Y-87141800D02*
X197530340Y-87141800D01*
%TO.N,//AF_MODE*%
X193959800Y-33348200D02*
X165797800Y-33348200D01*
X165797800Y-52869260D02*
X172130340Y-59201800D01*
X165797800Y-33348200D02*
X165797800Y-52869260D01*
X195988200Y-35376600D02*
X193959800Y-33348200D01*
%TO.N,//START*%
X173283800Y-118478200D02*
X173283800Y-106233800D01*
X170137800Y-103087800D02*
X170137800Y-79788200D01*
X184506600Y-129701000D02*
X173283800Y-118478200D01*
X173283800Y-106233800D02*
X170137800Y-103087800D01*
X170137800Y-79788200D02*
X171863940Y-79788200D01*
X189081800Y-129701000D02*
X184506600Y-129701000D01*
X171863940Y-79788200D02*
X172130340Y-79521800D01*
%TO.N,//SELECT*%
X170697800Y-88574340D02*
X172130340Y-87141800D01*
X172267800Y-116888200D02*
X172267800Y-128071800D01*
X172267800Y-128071800D02*
X173897000Y-129701000D01*
X173897000Y-129701000D02*
X174581800Y-129701000D01*
X171977800Y-101988200D02*
X170697800Y-100708200D01*
X170697800Y-100708200D02*
X170697800Y-88574340D01*
%TO.N,//AutoFire/AF_R1*%
X127865000Y-45337000D02*
X127865000Y-49192000D01*
X127770000Y-45242000D02*
X127865000Y-45337000D01*
X97908188Y-46390400D02*
X99056588Y-45242000D01*
X99056588Y-45242000D02*
X127770000Y-45242000D01*
%TD*%
M02*
