M48
; DRILL file KiCad 10.0.3 date 2026-07-01T12:00:47
; FORMAT={-:-/ absolute / metric / decimal}
; #@! TF.CreationDate,2026-07-01T12:00:47-06:00
; #@! TF.GenerationSoftware,Kicad,Pcbnew,10.0.3
; #@! TF.FileFunction,Plated,1,2,PTH
FMAT,2
METRIC
; #@! TA.AperFunction,Plated,PTH,ViaDrill
T1C0.300
; #@! TA.AperFunction,Plated,PTH,ComponentDrill
T2C0.800
; #@! TA.AperFunction,Plated,PTH,ComponentDrill
T3C0.900
; #@! TA.AperFunction,Plated,PTH,ComponentDrill
T4C1.000
; #@! TA.AperFunction,Plated,PTH,ComponentDrill
T5C1.200
; #@! TA.AperFunction,Plated,PTH,ComponentDrill
T6C1.500
%
G90
G05
T1
X91.7Y-53.0
X91.77Y-51.942
X105.3Y-53.0
X105.37Y-51.942
X117.77Y-45.992
X118.87Y-52.742
X121.52Y-54.892
X123.07Y-52.742
X125.775Y-54.425
X160.147Y-65.659
X160.42Y-120.04
X168.451Y-120.058
X168.529Y-67.31
X168.72Y-100.29
X171.978Y-101.988
X172.268Y-116.888
X180.41Y-39.12
X182.428Y-37.098
X183.178Y-53.933
X185.04Y-39.12
X189.2Y-69.35
X192.118Y-53.878
X192.618Y-52.178
X200.068Y-76.398
X200.228Y-67.038
T2
X134.696Y-69.715
X138.506Y-76.314
X163.195Y-48.34
X163.195Y-50.84
X163.71Y-131.0
X163.71Y-133.5
X166.37Y-56.154
X166.37Y-58.654
X166.65Y-104.41
X166.65Y-106.91
X168.02Y-76.2
X168.02Y-83.82
X172.13Y-54.122
X172.13Y-56.662
X172.13Y-59.202
X172.13Y-61.742
X172.13Y-64.282
X172.13Y-66.822
X172.13Y-69.362
X172.13Y-71.902
X172.13Y-74.442
X172.13Y-76.982
X172.13Y-79.522
X172.13Y-82.062
X172.13Y-84.602
X172.13Y-87.142
X172.13Y-89.682
X175.205Y-101.108
X175.205Y-108.728
X180.885Y-101.108
X180.885Y-108.728
X186.055Y-101.108
X186.055Y-108.728
X192.025Y-101.148
X192.025Y-108.768
X197.53Y-54.122
X197.53Y-56.662
X197.53Y-59.202
X197.53Y-61.742
X197.53Y-64.282
X197.53Y-66.822
X197.53Y-69.362
X197.53Y-71.902
X197.53Y-74.442
X197.53Y-76.982
X197.53Y-79.522
X197.53Y-82.062
X197.53Y-84.602
X197.53Y-87.142
X197.53Y-89.682
T3
X75.589Y-46.482
X75.639Y-48.807
X77.839Y-46.532
X77.914Y-48.782
X80.214Y-46.532
X80.239Y-48.782
X81.158Y-55.69
X81.208Y-58.015
X83.408Y-55.74
X83.483Y-57.99
X85.783Y-55.74
X85.808Y-57.99
X86.395Y-64.986
X86.445Y-67.311
X88.645Y-65.036
X88.72Y-67.286
X91.02Y-65.036
X91.045Y-67.286
X92.232Y-74.312
X92.282Y-76.637
X94.482Y-74.362
X94.557Y-76.612
X95.658Y-46.34
X95.708Y-48.665
X96.857Y-74.362
X96.882Y-76.612
X97.908Y-46.39
X97.983Y-48.64
X100.283Y-46.39
X100.308Y-48.64
X101.032Y-55.618
X101.082Y-57.943
X103.282Y-55.668
X103.357Y-57.918
X105.657Y-55.668
X105.682Y-57.918
X106.424Y-64.739
X106.474Y-67.064
X108.674Y-64.789
X108.749Y-67.039
X111.049Y-64.789
X111.074Y-67.039
X111.953Y-74.591
X112.003Y-76.916
X114.203Y-74.641
X114.278Y-76.891
X116.578Y-74.641
X116.603Y-76.891
X127.67Y-60.227
X128.829Y-62.185
X129.658Y-59.021
X129.992Y-64.198
X130.74Y-60.995
X131.928Y-63.051
X132.29Y-77.732
X134.83Y-77.732
X139.258Y-60.43
X140.417Y-62.388
X141.246Y-59.224
X141.58Y-64.401
X142.328Y-61.198
X143.516Y-63.255
T4
X110.085Y-49.192
X112.625Y-49.192
X115.165Y-49.192
X117.705Y-49.192
X120.245Y-49.192
X122.785Y-49.192
X125.325Y-49.192
X127.865Y-49.192
X130.405Y-49.192
X132.945Y-49.192
X135.485Y-49.192
X138.025Y-49.192
X140.565Y-49.192
X164.08Y-62.484
X164.08Y-65.024
X164.08Y-67.564
X164.08Y-70.104
X164.08Y-72.644
X164.08Y-75.184
X164.08Y-77.724
X164.08Y-80.264
X164.08Y-82.804
X168.048Y-35.377
X170.588Y-35.377
X173.128Y-35.377
X174.978Y-115.858
X175.668Y-35.377
X177.518Y-115.858
X178.208Y-35.377
X180.058Y-115.858
X180.748Y-35.377
X182.598Y-115.858
X183.288Y-35.377
X185.138Y-115.858
X185.828Y-35.377
X187.678Y-115.858
X188.368Y-35.377
X190.218Y-115.858
X190.908Y-35.377
X192.758Y-115.858
X193.448Y-35.377
X195.988Y-35.377
X198.528Y-35.377
X204.455Y-73.426
X204.455Y-75.966
X204.455Y-78.506
X204.455Y-81.046
X204.455Y-83.586
X204.455Y-86.126
X204.455Y-88.666
X204.455Y-91.206
X204.557Y-49.347
X204.557Y-51.887
X204.557Y-54.427
X204.557Y-56.967
X204.557Y-59.507
X204.557Y-62.047
X204.557Y-64.587
X204.557Y-67.127
T5
X174.582Y-129.701
X174.582Y-142.201
X179.582Y-129.701
X179.582Y-142.201
X189.082Y-129.701
X189.082Y-142.201
X194.082Y-129.701
X194.082Y-142.201
T6
X158.79Y-144.8
X158.809Y-140.682
M30
