M48
; DRILL file KiCad 10.0.3 date 2026-07-01T12:00:47
; FORMAT={-:-/ absolute / metric / decimal}
; #@! TF.CreationDate,2026-07-01T12:00:47-06:00
; #@! TF.GenerationSoftware,Kicad,Pcbnew,10.0.3
; #@! TF.FileFunction,NonPlated,1,2,NPTH
FMAT,2
METRIC
; #@! TA.AperFunction,NonPlated,NPTH,ComponentDrill
T1C0.800
; #@! TA.AperFunction,NonPlated,NPTH,ComponentDrill
T2C1.800
%
G90
G05
T1
X73.564Y-47.832
X79.133Y-57.04
X82.239Y-47.832
X84.37Y-66.336
X87.808Y-57.04
X90.207Y-75.662
X93.045Y-66.336
X93.633Y-47.69
X98.882Y-75.662
X99.007Y-56.968
X102.308Y-47.69
X104.399Y-66.089
X107.682Y-56.968
X109.928Y-75.941
X113.074Y-66.089
X118.603Y-75.941
X127.477Y-57.942
X131.814Y-65.455
X139.065Y-58.145
X143.402Y-65.658
T2
X172.582Y-135.951
X181.582Y-135.951
X187.082Y-135.951
X196.082Y-135.951
M30
